<?xml version="1.0" encoding="iso-8859-1"?>
<!-- Generator: Adobe Illustrator 19.0.0, SVG Export Plug-In . SVG Version: 6.00 Build 0)  -->
<svg xmlns="http://www.w3.org/2000/svg" xmlns:xlink="http://www.w3.org/1999/xlink" version="1.1" id="Capa_1" x="0px" y="0px" viewBox="0 0 512 512" style="enable-background:new 0 0 512 512;" xml:space="preserve">
<path style="fill:#BC8544;" d="M504.5,236.213c0,5.665,0,25.521,0,31.077v4.554c0,12.51-7.923,23.663-19.779,27.843l-385.83,136.04  c-3.187,1.124-6.545,1.698-9.926,1.698l0,0c-9.131,0-17.667-4.145-23.22-11.075c-1.264-1.578-19.041-30.26-21.27-34.71  C20.812,344.397,7.5,291.126,7.5,234.762c0-1.935,0.019-3.865,0.05-5.792h21.901c4.772-38.836,16.15-75.643,32.992-109.27  c4.998-9.979,15.31-16.225,26.52-16.225h0.062c3.342,0,6.659,0.561,9.813,1.658L454.621,228.97h49.774  c0.068,0.828,0.105,1.663,0.105,2.504V236.213z"/>
<path style="fill:#FBB03B;" d="M504.5,231.474v4.739c0,13.018-8.245,24.625-20.583,28.975l-29.894,10.54v30.47  c0,10.663-8.692,19.307-19.414,19.307s-19.414-8.644-19.414-19.307v-16.78l-106.777,37.649v104.626  c0,10.663-8.692,19.307-19.414,19.307s-19.414-8.644-19.414-19.307v-31.564c-2.858,1.646-6.167,2.604-9.707,2.604  c-10.722,0-19.414-8.644-19.414-19.307v-32.401l-126.455,44.587l-31.612,9.195c-3.317,1.17-6.811,1.767-10.33,1.767  c-11.665,0-22.397-4.549-27.598-14.934C20.812,344.397,7.5,291.126,7.5,234.762S20.812,125.128,44.474,77.885  C49.675,67.501,60.407,61,72.072,61h0.064c3.477,0,6.93,0.583,10.212,1.726l401.451,139.732  C496.198,206.774,504.5,218.411,504.5,231.474z"/>
<path style="fill:#F99A1E;" d="M501.522,218.351c1.911,4.02,2.978,8.477,2.978,13.123v4.739c0,13.018-8.245,24.625-20.583,28.975  l-29.894,10.54v30.47c0,10.663-8.692,19.307-19.414,19.307s-19.414-8.644-19.414-19.307v-16.78l-106.777,37.649v104.626  c0,10.663-8.692,19.307-19.414,19.307s-19.414-8.644-19.414-19.307v-31.564c-2.858,1.646-6.167,2.604-9.707,2.604  c-10.722,0-19.414-8.644-19.414-19.307v-32.401L114.24,395.532l-31.838,9.274c-3.317,1.169-6.811,1.767-10.33,1.767  c-11.665,0-22.397-4.549-27.598-14.934C20.812,344.397,7.5,291.126,7.5,234.762c0-5.501,0.131-10.971,0.382-16.411  c2.319,50.293,15.24,97.834,36.593,140.467c5.201,10.384,15.933,16.885,27.598,16.885h0.064c3.477,0,6.93-0.584,10.212-1.726  L483.8,234.245C491.788,231.464,498.06,225.635,501.522,218.351z"/>
<path style="fill:#D59A4C;" d="M90.683,403.838l-8.28,2.92c-3.317,1.17-6.811,1.767-10.33,1.767  c-11.665,0-22.397-6.501-27.598-16.885C20.812,344.397,7.5,291.126,7.5,234.762S20.812,125.128,44.474,77.885  C49.675,67.501,60.407,61,72.072,61h0.064c3.477,0,6.93,0.583,10.212,1.726l31.886,11.099c0.019,0.551,0.042,1.1,0.042,1.656  c0,24.198-17.907,44.235-41.26,47.726c7.55,8.508,12.139,19.676,12.139,31.915c0,16.535-8.365,31.122-21.111,39.821  c12.746,8.698,21.111,23.286,21.111,39.821s-8.365,31.122-21.111,39.821c12.746,8.698,21.111,23.286,21.111,39.821  c0,12.239-4.59,23.407-12.139,31.915c23.354,3.491,41.26,23.528,41.26,47.726C114.277,394.543,90.683,403.838,90.683,403.838z"/>
<path style="fill:#BC8544;" d="M114.277,394.045c0,0.499-0.023,0.992-0.038,1.488l-23.557,8.306  c-5.11-16.322-17.48-29.462-33.357-35.671c-5.402-2.112-7.665-8.585-4.878-13.691c4.35-7.968,6.823-17.095,6.823-26.8  c0-15.417-6.233-29.382-16.327-39.55c-3.8-3.828-3.8-9.988,0-13.815c10.094-10.167,16.327-24.133,16.327-39.55  s-6.233-29.382-16.327-39.55c-3.8-3.828-3.8-9.988,0-13.815c10.094-10.167,16.327-24.133,16.327-39.55  c0-9.705-2.473-18.832-6.823-26.8c-2.787-5.105-0.525-11.578,4.876-13.69C73.22,95.143,85.6,81.981,90.7,65.633l23.536,8.192  c0.019,0.551,0.042,1.1,0.042,1.656c0,24.198-17.907,44.235-41.26,47.726c7.55,8.508,12.139,19.676,12.139,31.915  c0,16.535-8.365,31.122-21.111,39.821c12.746,8.698,21.111,23.286,21.111,39.821s-8.365,31.122-21.111,39.821  c12.746,8.698,21.111,23.286,21.111,39.821c0,12.239-4.59,23.407-12.139,31.915C96.371,349.81,114.277,369.846,114.277,394.045z"/>
<path style="fill:#F24F43;" d="M279.267,131.267c0.007,0.39,0.03,0.777,0.03,1.169c0,37.32-30.422,67.574-67.949,67.574  s-67.949-30.254-67.949-67.574c0-16.355,5.844-31.353,15.567-43.042L279.267,131.267z M352.1,219.317  c-34.847,0-63.096,28.093-63.096,62.748c0,17.693,7.375,33.664,19.22,45.071l106.504-37.552c0.296-2.467,0.467-4.972,0.467-7.519  C415.195,247.41,386.946,219.317,352.1,219.317z"/>
<path style="fill:#ED322E;" d="M291.942,301.024l119.065-41.443c2.696,6.982,4.189,14.557,4.189,22.483  c0,2.546-0.17,5.052-0.467,7.519l-106.504,37.552C300.804,319.99,295.14,311.053,291.942,301.024z"/>
<path style="fill:#8EB55E;" d="M162.813,325.505c-21.444,0-38.828-17.288-38.828-38.614c0-21.326,17.384-38.614,38.828-38.614  s38.828,17.288,38.828,38.614C201.641,308.217,184.257,325.505,162.813,325.505z"/>
<path d="M185.673,156.08l0.971-0.966c2.936-2.922,7.685-2.909,10.607,0.026c2.921,2.937,2.909,7.686-0.027,10.606l-0.971,0.966  c-1.463,1.456-3.377,2.184-5.29,2.184c-1.926,0-3.851-0.737-5.316-2.21C182.725,163.75,182.737,159.001,185.673,156.08z   M371.08,270.953l-0.971,0.965c-2.938,2.92-2.952,7.669-0.032,10.606c1.466,1.475,3.392,2.213,5.319,2.213  c1.912,0,3.824-0.727,5.287-2.181l0.971-0.965c2.938-2.92,2.952-7.669,0.032-10.606C378.768,268.048,374.019,268.033,371.08,270.953  z M229.791,159.242c1.912,0,3.824-0.727,5.287-2.181l0.971-0.965c2.938-2.92,2.952-7.669,0.032-10.606  c-2.919-2.938-7.668-2.952-10.606-0.032l-0.971,0.965c-2.938,2.92-2.952,7.669-0.032,10.606  C225.937,158.504,227.864,159.242,229.791,159.242z M313.806,262.268l-0.971,0.966c-2.936,2.921-2.948,7.67-0.027,10.606  c1.466,1.473,3.391,2.21,5.317,2.21c1.913,0,3.827-0.728,5.29-2.184l0.971-0.966c2.936-2.921,2.948-7.67,0.026-10.606  C321.491,259.357,316.742,259.346,313.806,262.268z M176.888,135.592c1.913,0,3.827-0.728,5.29-2.184l0.971-0.966  c2.936-2.921,2.948-7.67,0.027-10.606c-2.922-2.936-7.671-2.948-10.607-0.026l-0.971,0.966c-2.936,2.921-2.948,7.67-0.027,10.606  C173.037,134.854,174.962,135.592,176.888,135.592z M236.152,270.953l-0.971,0.965c-2.938,2.92-2.952,7.669-0.032,10.606  c1.466,1.475,3.393,2.213,5.319,2.213c1.912,0,3.824-0.727,5.287-2.181l0.971-0.965c2.938-2.92,2.952-7.669,0.032-10.606  C243.839,268.048,239.09,268.033,236.152,270.953z M512,231.475v40.369c0,15.657-9.96,29.689-24.785,34.917l-27.782,9.796  c-4.076,9.652-13.668,16.448-24.824,16.448c-4.608,0-8.951-1.16-12.748-3.202l-105.944,37.355v64.535  c0,14.781-12.074,26.807-26.914,26.807s-26.914-12.025-26.914-26.807V410.14c-0.733,0.062-1.469,0.092-2.207,0.092  c-14.84,0-26.914-12.025-26.914-26.807v-21.804l-116.075,40.927c-0.107,0.041-0.215,0.079-0.324,0.114L84.896,413.83  c-4.13,1.455-8.445,2.193-12.824,2.193c-1.42,0-2.826-0.075-4.213-0.224c1.896,3.02,3.327,5.26,3.82,5.962  c4.148,5.112,10.6,8.162,17.284,8.162c2.54,0,5.04-0.428,7.433-1.271l113.629-40.064c3.908-1.378,8.19,0.674,9.567,4.579  c1.377,3.906-0.673,8.19-4.579,9.567L101.385,442.8c-3.999,1.41-8.178,2.125-12.42,2.125c-11.406,0-22.002-5.062-29.073-13.886  c-1.755-2.192-15.404-24.336-20.454-33.048c-0.59-0.955-1.143-1.943-1.653-2.961c-0.005-0.011-0.011-0.021-0.016-0.032  c-0.003-0.007-0.007-0.015-0.011-0.022C12.702,344.944,0,291.044,0,234.763c0-56.289,12.707-110.2,37.768-160.236  C44.265,61.557,57.409,53.5,72.072,53.5c4.393,0,8.658,0.721,12.742,2.143l31.716,11.039c0.114,0.037,0.226,0.076,0.337,0.117  l44.398,15.454c0.111,0.036,0.222,0.074,0.332,0.115l119.97,41.758c0.11,0.036,0.219,0.074,0.328,0.114l73.951,25.74  c3.912,1.361,5.979,5.637,4.618,9.549s-5.638,5.979-9.548,4.617l-64.683-22.514c-4.571,37.074-36.412,65.877-74.886,65.877  c-41.603,0-75.449-33.678-75.449-75.074c0-13.896,3.903-27.509,11.136-39.254l-25.948-9.031  c-3.174,19.767-16.997,36.517-35.68,43.544c4.723,8.311,7.25,17.744,7.25,27.427c0,15.111-6.152,29.418-16.813,39.82  c10.661,10.403,16.813,24.711,16.813,39.821c0,18.395-9.115,35.596-24.383,46.016c-3.423,2.332-8.088,1.452-10.422-1.968  c-2.335-3.421-1.454-8.088,1.967-10.423c11.17-7.622,17.838-20.192,17.838-33.625s-6.668-26.003-17.839-33.627  c-2.047-1.397-3.272-3.716-3.272-6.194s1.225-4.798,3.272-6.195c11.17-7.622,17.838-20.192,17.838-33.625  c0-9.922-3.64-19.489-10.249-26.938c-1.826-2.058-2.379-4.951-1.44-7.537c0.939-2.587,3.219-4.451,5.941-4.858  c18.666-2.79,33.021-18.237,34.704-36.676l-26.729-9.304c-2.495-0.868-5.101-1.309-7.747-1.309c-8.878,0-17.079,5.002-20.957,12.744  C27.173,129.176,15,180.827,15,234.763c0,53.929,12.169,105.572,36.17,153.499c0.003,0.007,0.006,0.013,0.01,0.02  c0.145,0.29,0.367,0.7,0.654,1.211c4.097,7.048,11.892,11.532,20.238,11.532c2.677,0,5.314-0.451,7.837-1.34l26.689-9.411  c-1.743-18.377-16.073-33.754-34.691-36.537c-2.722-0.407-5.001-2.271-5.941-4.858c-0.939-2.586-0.386-5.479,1.44-7.537  c6.609-7.448,10.249-17.016,10.249-26.938c0-4.478-0.725-8.874-2.153-13.067c-1.335-3.921,0.76-8.183,4.681-9.519  c3.922-1.333,8.182,0.761,9.518,4.681c1.96,5.755,2.954,11.779,2.954,17.905c0,9.683-2.528,19.116-7.25,27.427  c18.621,7.004,32.414,23.666,35.648,43.347l116.92-41.225c2.296-0.808,4.84-0.453,6.827,0.951c1.987,1.406,3.167,3.688,3.167,6.122  v32.4c0,6.51,5.345,11.807,11.914,11.807c2.111,0,4.118-0.539,5.963-1.603c2.321-1.336,5.179-1.334,7.497,0.006  c2.319,1.34,3.747,3.814,3.747,6.493v31.564c0,6.51,5.345,11.807,11.914,11.807s11.914-5.297,11.914-11.807V330.428  c-12.542-13.11-19.414-30.17-19.414-48.363c0-38.735,31.669-70.248,70.596-70.248s70.596,31.513,70.596,70.248  c0,0.729,0.025,1.455,0.048,2.178c0.052,1.61,0.11,3.405-0.048,5.309v16.647c0,6.51,5.345,11.807,11.914,11.807  s11.914-5.297,11.914-11.807v-30.47c0-3.181,2.006-6.016,5.006-7.073l29.894-10.541C490.74,254.829,497,246.028,497,236.213v-4.738  c0-9.857-6.296-18.672-15.666-21.934l-103.593-36.058c-3.912-1.361-5.979-5.637-4.618-9.549c1.362-3.911,5.636-5.979,9.548-4.617  l103.593,36.058C501.658,200.732,512,215.24,512,231.475z M150.898,132.436c0,33.125,27.117,60.074,60.449,60.074  c31.938,0,58.171-24.74,60.309-55.951L161.63,98.263C154.68,108.253,150.898,120.208,150.898,132.436z M407.731,284.098  c-0.02-0.675-0.036-1.353-0.036-2.033c0-30.464-24.94-55.248-55.596-55.248s-55.596,24.784-55.596,55.248  c0,13.556,4.862,26.316,13.78,36.393L407.731,284.098z M410.414,317.935c-1.741-3.547-2.719-7.529-2.719-11.736v-6.183  l-91.777,32.36v18.877L410.414,317.935z M497,266.522c-3.15,2.417-6.708,4.37-10.589,5.738l-24.887,8.775v18.878l20.704-7.3  c8.836-3.115,14.773-11.463,14.773-20.771v-5.32H497z M469.021,243.94l0.971-0.966c2.936-2.921,2.948-7.67,0.027-10.606  c-2.923-2.937-7.671-2.949-10.607-0.026l-0.971,0.966c-2.936,2.921-2.948,7.67-0.026,10.606c1.465,1.473,3.391,2.21,5.316,2.21  C465.644,246.124,467.557,245.396,469.021,243.94z M116.484,286.891c0-25.427,20.783-46.113,46.328-46.113  s46.328,20.687,46.328,46.113c0,25.428-20.783,46.114-46.328,46.114S116.484,312.318,116.484,286.891z M131.484,286.891  c0,17.156,14.054,31.114,31.328,31.114s31.328-13.958,31.328-31.114s-14.054-31.113-31.328-31.113  C145.538,255.777,131.484,269.734,131.484,286.891z M119.594,184.101c-2.922-2.936-7.671-2.948-10.607-0.026l-0.971,0.966  c-2.936,2.921-2.948,7.67-0.026,10.606c1.465,1.473,3.391,2.21,5.316,2.21c1.913,0,3.827-0.728,5.29-2.184l0.971-0.966  C122.503,191.786,122.516,187.037,119.594,184.101z M313.806,184.074l-0.971,0.966c-2.936,2.921-2.948,7.67-0.027,10.606  c1.466,1.473,3.391,2.21,5.317,2.21c1.913,0,3.827-0.728,5.29-2.184l0.971-0.966c2.936-2.921,2.948-7.67,0.026-10.606  C321.491,181.165,316.742,181.152,313.806,184.074z M172.52,284.737c1.912,0,3.824-0.727,5.287-2.181l0.971-0.965  c2.938-2.92,2.952-7.669,0.032-10.606c-2.919-2.938-7.668-2.952-10.606-0.032l-0.971,0.965c-2.938,2.92-2.952,7.669-0.032,10.606  C168.666,283.999,170.592,284.737,172.52,284.737z"/>
<g>
</g>
<g>
</g>
<g>
</g>
<g>
</g>
<g>
</g>
<g>
</g>
<g>
</g>
<g>
</g>
<g>
</g>
<g>
</g>
<g>
</g>
<g>
</g>
<g>
</g>
<g>
</g>
<g>
</g>
</svg>
